<svg width="200" height="200" viewBox="0 0 200 200" fill="none" xmlns="http://www.w3.org/2000/svg">
    <!-- White background with padding -->
    <rect width="200" height="200" fill="white"/>

    <g transform="translate(30, 60)">
        <g clip-path="url(#clip0_1_237)">
            <path fill-rule="evenodd" clip-rule="evenodd" d="M77.3412 5.45129C79.8611 5.45129 82.2248 5.78908 84.4132 6.41558C82.2706 1.422 77.822 0 72.871 0C67.9103 0 63.4539 1.42758 61.3162 6.44501C63.4886 5.79646 65.8421 5.45129 68.3534 5.45129H77.3412ZM67.777 10.4646C55.8114 10.4646 48.9939 19.8779 48.9939 31.4897V43.4178C48.9939 44.579 49.9639 45.4977 51.1605 45.4977H94.4916C95.6882 45.4977 96.6582 44.579 96.6582 43.4178V31.4897C96.6582 19.8779 88.7304 10.4646 76.7648 10.4646H67.777ZM72.8091 31.5928C76.9971 31.5928 80.3921 28.1978 80.3921 24.0099C80.3921 19.8219 76.9971 16.4269 72.8091 16.4269C68.6212 16.4269 65.2262 19.8219 65.2262 24.0099C65.2262 28.1978 68.6212 31.5928 72.8091 31.5928ZM48.9939 52.5088C48.9939 51.3477 49.9639 50.4063 51.1605 50.4063H94.4916C95.6882 50.4063 96.6582 51.3477 96.6582 52.5088V65.1238C96.6582 67.4462 94.7182 69.3288 92.3251 69.3288H53.327C50.9339 69.3288 48.9939 67.4462 48.9939 65.1238V52.5088Z" fill="#E33E3F"/>
        </g>
    </g>

    <defs>
        <clipPath id="clip0_1_237">
            <rect width="145" height="120" fill="white"/>
        </clipPath>
    </defs>
</svg>
